<svg id="圖層_1" data-name="圖層 1" xmlns="http://www.w3.org/2000/svg" viewBox="0 0 1061.93 271.45"><defs><style>.cls-1{fill:#fff;}.cls-2{fill:#ef1640;}</style></defs><title>工作區域 2</title><path class="cls-1" d="M124.59,76.65Q114.41,62.28,98.72,62.27a24.38,24.38,0,0,0-16.73,6q-6.8,6-6.79,16.08t24.69,23.91q24.71,13.86,25,13.85Q142.36,135.2,142.36,153q0,24.31-14,39.34t-38.29,15q-30.84,0-48.61-30.84l17-16.72q3.39,9.15,12.55,16.72t18.81,7.58q11.51,0,18.17-7.84a28.47,28.47,0,0,0,6.66-19.08,22,22,0,0,0-5-14.24q-5-6.14-33.59-18.82T47.49,87.89q0-20.13,13.2-33.85T93.75,40.32q27.45,0,43.39,17.77Z"/><path class="cls-1" d="M182.87,109.32q11-12.81,32.67-12.81,20.39,0,33.84,16.2t13.46,38.16q0,23.79-13.32,39.73T215,206.54q-22.74,0-31.63-13.07l-.52,53.32H157.52V99.91h25.35ZM237,151.39a36.75,36.75,0,0,0-7.58-23.13q-7.57-9.79-20.91-9.8-12.28,0-20.38,9.94a35.81,35.81,0,0,0,.52,46q8.63,10.2,19.86,10.2,13.34,0,20.91-9.41T237,151.39Z"/><path class="cls-1" d="M422.78,203.14H397.43v-80.5H385.15V102h12.28V64.89h25.35V102h20.13v20.64H422.78Z"/><path class="cls-1" d="M564.43,67.24v41.29h48.88v22.74H564.43v71.87H537.52V44.5h78.92V67.24Z"/><path class="cls-1" d="M661.65,203.14H636.3V24.64h25.35Z"/><path class="cls-1" d="M715.49,56.52a14.9,14.9,0,1,1-25.35-10.45,14.9,14.9,0,0,1,25.35,10.45ZM713.4,203.14H688.05V99.91H713.4Z"/><path class="cls-1" d="M836,194.26q0,53-49.4,53.05-21.95,0-37.11-11.89t-15.16-31h26.92q0,7.58,7.58,14.89t17,7.32q24.83,0,24.83-29.79v-6.54q-10.73,13.6-32.54,13.6t-34.24-15.16q-12.4-15.17-12.41-37.12,0-23.77,13.33-39.72T779.39,96q21.3,0,31.23,13.33V99.39H836Zm-21.69-45q0-14.12-7.84-22.73t-20.65-8.63q-12.81,0-20.78,9.41t-8,23.78Q757,182,785.79,182q13.07,0,20.78-9.28T814.28,149.3Z"/><path class="cls-1" d="M881.18,24.64v83.89q9.93-12,31.62-12,16.22,0,25.88,12.55t9.67,31.1v63H923.26V148.52q0-32.67-20.13-32.67-21.95,0-22,36.07v51.22H855.83V24.64Z"/><path class="cls-1" d="M1000.62,203.14H975.27v-80.5H963V102h12.29V64.89h25.35V102h20.12v20.64h-20.12Z"/><path class="cls-2" d="M263.12,120.74h0l.32.72q.9,2.27,2,4.43l52,87.88,52-87.88q1.08-2.16,2-4.43l.32-.72h0a58.07,58.07,0,1,0-108.57,0Z"/><circle class="cls-1" cx="317.49" cy="98.13" r="25.54"/></svg>